HIERARCHY
ROOT Hips
{
	OFFSET 0.000000 0.000000 0.000000
	CHANNELS 6 Xposition Yposition Zposition Zrotation Yrotation Xrotation
	JOINT LHipJoint
	{
		OFFSET 0.000000 0.000000 0.000000
		CHANNELS 3 Zrotation Yrotation Xrotation
		JOINT LeftUpLeg
		{
			OFFSET 1.363060 -1.794630 0.839290
			CHANNELS 3 Zrotation Yrotation Xrotation
			JOINT LeftLeg
			{
				OFFSET 2.448110 -6.726130 0.000000
				CHANNELS 3 Zrotation Yrotation Xrotation
				JOINT LeftFoot
				{
					OFFSET 2.562200 -7.039590 0.000000
					CHANNELS 3 Zrotation Yrotation Xrotation
					JOINT LeftToeBase
					{
						OFFSET 0.157640 -0.433110 2.322550
						CHANNELS 3 Zrotation Yrotation Xrotation
						End Site
						{
							OFFSET 0.000000 0.000000 0.000000
						}
					}
				}
			}
		}
	}
	JOINT RHipJoint
	{
		OFFSET 0.000000 0.000000 0.000000
		CHANNELS 3 Zrotation Yrotation Xrotation
		JOINT RightUpLeg
		{
			OFFSET -1.305520 -1.794630 0.839290
			CHANNELS 3 Zrotation Yrotation Xrotation
			JOINT RightLeg
			{
				OFFSET -2.542530 -6.985550 0.000000
				CHANNELS 3 Zrotation Yrotation Xrotation
				JOINT RightFoot
				{
					OFFSET -2.568260 -7.056230 0.000000
					CHANNELS 3 Zrotation Yrotation Xrotation
					JOINT RightToeBase
					{
						OFFSET -0.164730 -0.452590 2.363150
						CHANNELS 3 Zrotation Yrotation Xrotation
						End Site
						{
							OFFSET 0.000000 0.000000 0.000000
						}
					}
				}
			}
		}
	}
	JOINT LowerBack
	{
		OFFSET 0.000000 0.000000 0.000000
		CHANNELS 3 Zrotation Yrotation Xrotation
		JOINT Spine
		{
			OFFSET 0.028270 2.035590 -0.193380
			CHANNELS 3 Zrotation Yrotation Xrotation
			JOINT Spine1
			{
				OFFSET 0.056720 2.048850 -0.042750
				CHANNELS 3 Zrotation Yrotation Xrotation
				JOINT Neck
				{
					OFFSET 0.000000 0.000000 0.000000
					CHANNELS 3 Zrotation Yrotation Xrotation
					JOINT Neck1
					{
						OFFSET -0.054170 1.746240 0.172020
						CHANNELS 3 Zrotation Yrotation Xrotation
						JOINT Head
						{
							OFFSET 0.104070 1.761360 -0.123970
							CHANNELS 3 Zrotation Yrotation Xrotation
							End Site
							{
								OFFSET 0.000000 0.000000 0.000000
							}
						}
					}
				}
				JOINT LeftShoulder
				{
					OFFSET 0.000000 0.000000 0.000000
					CHANNELS 3 Zrotation Yrotation Xrotation
					JOINT LeftArm
					{
						OFFSET 3.362410 1.200890 -0.311210
						CHANNELS 3 Zrotation Yrotation Xrotation
						JOINT LeftForeArm
						{
							OFFSET 4.983000 -0.000000 -0.000000
							CHANNELS 3 Zrotation Yrotation Xrotation
							JOINT LeftHand
							{
								OFFSET 3.483560 -0.000000 -0.000000
								CHANNELS 3 Zrotation Yrotation Xrotation
								JOINT LeftFingerBase
								{
									OFFSET 0.000000 0.000000 0.000000
									CHANNELS 3 Zrotation Yrotation Xrotation
									JOINT LeftHandIndex1
									{
										OFFSET 0.715260 -0.000000 -0.000000
										CHANNELS 3 Zrotation Yrotation Xrotation
										End Site
										{
											OFFSET 0.000000 0.000000 0.000000
										}
									}
								}
								JOINT LThumb
								{
									OFFSET 0.000000 0.000000 0.000000
									CHANNELS 3 Zrotation Yrotation Xrotation
									End Site
									{
										OFFSET 0.000000 0.000000 0.000000
									}
								}
							}
						}
					}
				}
				JOINT RightShoulder
				{
					OFFSET 0.000000 0.000000 0.000000
					CHANNELS 3 Zrotation Yrotation Xrotation
					JOINT RightArm
					{
						OFFSET -3.136600 1.374050 -0.404650
						CHANNELS 3 Zrotation Yrotation Xrotation
						JOINT RightForeArm
						{
							OFFSET -5.241900 -0.000000 -0.000000
							CHANNELS 3 Zrotation Yrotation Xrotation
							JOINT RightHand
							{
								OFFSET -3.444170 -0.000000 -0.000000
								CHANNELS 3 Zrotation Yrotation Xrotation
								JOINT RightFingerBase
								{
									OFFSET 0.000000 0.000000 0.000000
									CHANNELS 3 Zrotation Yrotation Xrotation
									JOINT RightHandIndex1
									{
										OFFSET -0.622530 -0.000000 -0.000000
										CHANNELS 3 Zrotation Yrotation Xrotation
										End Site
										{
											OFFSET 0.000000 0.000000 0.000000
										}
									}
								}
								JOINT RThumb
								{
									OFFSET 0.000000 0.000000 0.000000
									CHANNELS 3 Zrotation Yrotation Xrotation
									End Site
									{
										OFFSET 0.000000 0.000000 0.000000
									}
								}
							}
						}
					}
				}
			}
		}
	}
}
MOTION
Frames: 8
Frame Time: 0.008333
2.021362 -1.765956 5.916496 11.479843 9.812738 -5.447765 -1.804944 0.511047 3.191298 -14.728922 6.328743 28.165918 -4.626593 -4.818997 -18.512835 1.745171 -8.188951 -0.924453 -2.424873 -2.248826 24.091301 -2.072487 1.472702 2.136719 -22.046425 5.997199 -23.369211 -5.819040 -8.118316 16.339968 2.926873 -4.193919 4.313452 -0.352075 0.358855 9.436924 -6.612729 -1.265456 0.579714 -2.464853 -3.749543 1.597398 1.431041 -3.190597 0.942708 0.412067 0.350785 -2.241443 0.280524 0.412196 -0.561605 0.397376 0.626895 2.205100 -2.239144 -0.423588 0.315203 12.753605 -14.896817 19.364380 2.147913 -8.730636 -0.498540 0.037865 -0.676125 -15.921691 2.461165 -2.373249 1.642198 -1.220509 0.000000 0.000000 8.400580 -2.459355 23.019325 -0.195026 -0.371491 -0.026916 -0.247548 -9.653870 -9.719596 -0.224004 4.555412 -1.924105 0.205295 -0.045635 2.505086 -13.190592 -9.783251 -10.604533 -1.190210 0.000000 0.000000 -21.721172 -49.610409 -6.611797
2.073055 -1.784140 5.991533 11.473754 10.006250 -5.388766 -1.805807 0.502042 3.220101 -14.869406 6.358906 28.248480 -4.721246 -4.907995 -18.963203 1.752358 -8.068634 -0.791250 -2.464894 -2.100846 24.193514 -2.060247 1.484532 2.000112 -22.088434 6.466363 -23.341997 -5.413091 -7.869955 14.432322 3.063289 -3.984189 4.171336 -0.446015 0.073232 9.098766 -6.750685 -1.363201 0.515082 -2.458734 -3.877229 1.606142 1.427161 -3.283023 0.892168 0.324264 0.280829 -2.359495 0.249362 0.345552 -0.748435 0.300583 0.561995 2.144123 -2.268790 -0.566937 0.298936 12.478726 -15.109228 21.005095 2.379979 -8.759752 -0.503202 0.058701 -0.651764 -15.847712 2.707531 -2.298600 1.596680 -1.219601 0.000000 0.000000 8.519788 -2.817643 23.263468 -0.132961 -0.348002 -0.024698 -0.143168 -9.851664 -9.722500 -0.368261 4.867144 -2.021228 0.197367 -0.028010 2.479719 -13.334338 -9.456458 -11.301916 -1.190650 0.000000 0.000000 -21.997957 -50.015106 -6.186754
2.133880 -1.797140 6.114825 11.471445 10.202360 -5.335441 -1.803382 0.499384 3.252408 -15.006230 6.402553 28.433241 -4.801173 -4.967850 -19.371059 1.768137 -7.914633 -0.654199 -2.504836 -1.916797 24.339611 -1.996086 1.510763 1.829699 -22.258499 6.665769 -23.798357 -4.913877 -7.460580 12.861660 3.295040 -3.692307 4.355647 -0.464491 -0.078549 8.762419 -6.899689 -1.447722 0.464232 -2.439904 -3.994800 1.621677 1.429120 -3.357209 0.865620 0.269015 0.243994 -2.365509 0.242775 0.308964 -0.903529 0.244238 0.528492 2.124910 -2.239505 -0.648651 0.287585 12.143210 -15.368668 21.561949 2.417223 -9.068579 -0.563749 0.061300 -0.648024 -16.151562 2.737893 -2.272283 1.499672 -1.221738 0.000000 0.000000 8.537529 -3.256062 23.474009 -0.102418 -0.342433 -0.024456 -0.102719 -10.098420 -9.784189 -0.526593 5.166881 -2.187940 0.185335 -0.013400 2.414771 -13.518819 -9.130492 -12.062055 -1.189511 0.000000 0.000000 -22.367224 -50.415867 -5.758533
2.194339 -1.833979 6.179055 11.450728 10.362394 -5.312125 -1.822400 0.483670 3.270139 -15.180119 6.420972 28.555740 -4.892296 -5.047350 -19.823788 1.781779 -7.776251 -0.564134 -2.550968 -1.737662 24.454653 -1.959784 1.517145 1.614908 -22.496141 6.960633 -24.085260 -4.322180 -7.016865 10.490212 3.373247 -4.281725 3.612166 -0.530268 -0.358191 8.244300 -7.121515 -1.562374 0.334869 -2.426362 -4.115613 1.630134 1.426813 -3.432445 0.813429 0.187723 0.186111 -2.438515 0.207904 0.234936 -1.120211 0.157071 0.469072 2.055943 -2.258415 -0.794079 0.262244 11.606112 -15.713985 21.656904 2.365608 -9.488918 -0.650193 0.060644 -0.648246 -16.524567 2.760759 -2.142848 1.459391 -1.218810 0.000000 0.000000 8.544161 -3.768314 23.604774 -0.098010 -0.354024 -0.028052 -0.141159 -10.363615 -9.884580 -0.728235 5.405843 -2.424508 0.167069 -0.004332 2.310588 -13.896488 -8.923166 -13.125201 -1.194660 0.000000 0.000000 -23.007858 -50.974289 -5.865232
2.201467 -1.881709 6.236168 11.433303 10.511161 -5.279031 -1.829989 0.481929 3.286529 -15.354027 6.444806 28.571192 -4.968295 -5.122530 -20.303755 1.819907 -7.625880 -0.457379 -2.599501 -1.507996 24.770208 -1.937505 1.520935 1.502443 -22.757528 7.302272 -24.419697 -3.930484 -6.664444 8.413837 3.556090 -4.000217 3.279867 -0.564503 -0.541682 7.687152 -7.305157 -1.667249 0.222038 -2.403827 -4.201834 1.685704 1.461822 -3.480306 0.827836 0.208467 0.201782 -2.387662 0.226616 0.301682 -1.127550 0.188356 0.467193 2.133722 -2.100268 -0.803226 0.267480 11.975910 -15.802520 22.447403 2.462161 -9.714617 -0.703267 0.056241 -0.625669 -16.937548 2.771542 -1.995624 1.449069 -1.217342 0.000000 0.000000 8.521175 -4.335080 23.731247 -0.065811 -0.384822 -0.032476 -0.176521 -10.607922 -9.954733 -0.900666 5.690659 -2.700607 0.140020 0.008149 2.223140 -14.550792 -8.649283 -14.169835 -1.196009 0.000000 0.000000 -23.014685 -51.272484 -5.763234
2.238035 -1.867160 6.505968 11.464713 10.761844 -5.132849 -1.736283 0.526136 3.337715 -15.429342 6.544561 28.715132 -4.993808 -5.147577 -20.685606 1.869599 -7.528842 -0.398524 -2.651267 -1.336910 24.965261 -1.928729 1.523451 1.449226 -22.863264 7.782794 -24.631573 -3.538074 -6.256230 6.143397 3.748767 -3.474236 3.414950 -0.573597 -0.683241 7.512376 -7.439333 -1.766368 0.116127 -2.363168 -4.262951 1.776071 1.523642 -3.507110 0.883731 0.286916 0.262834 -2.243430 0.258871 0.408834 -1.055674 0.210789 0.469137 2.265043 -1.878077 -0.755410 0.287206 12.702399 -15.784904 23.080639 2.523787 -9.939157 -0.763043 0.057693 -0.580732 -17.182295 2.895694 -1.624738 1.527242 -1.202798 0.000000 0.000000 8.611010 -4.752456 23.974554 0.029974 -0.386519 -0.019618 0.034316 -10.759747 -9.888027 -0.940304 6.085499 -2.789484 0.130219 0.038031 2.269429 -14.651136 -8.065592 -14.773068 -1.183789 0.000000 0.000000 -22.739998 -51.452660 -4.620197
2.264593 -1.896299 6.627090 11.437250 10.951374 -5.068875 -1.688708 0.544545 3.369409 -15.549079 6.622546 28.921322 -5.017821 -5.212235 -21.128832 1.916943 -7.418398 -0.227726 -2.670667 -1.200014 24.963287 -1.887552 1.541870 1.336781 -23.033884 8.293707 -24.936350 -3.138454 -5.690803 4.391642 4.069390 -3.137620 3.565619 -0.589800 -0.979968 7.691099 -7.591295 -1.887794 -0.033191 -2.343307 -4.343174 1.852543 1.596568 -3.542954 0.891796 0.321704 0.297067 -2.091671 0.275560 0.497000 -0.986056 0.200050 0.463716 2.334742 -1.735028 -0.751398 0.295004 13.121370 -15.932935 23.846107 2.621488 -10.178359 -0.835142 0.054138 -0.553488 -17.562843 2.968598 -1.465194 1.534495 -1.190117 0.000000 0.000000 8.695266 -5.106018 24.264482 0.119853 -0.402905 -0.011862 0.149963 -10.939284 -9.888166 -1.110206 6.293155 -2.836963 0.123215 0.061400 2.231776 -15.054792 -7.672623 -15.647610 -1.177290 0.000000 0.000000 -23.228045 -51.965363 -3.218348
2.286500 -1.942647 6.644481 11.371082 11.077007 -5.078629 -1.691409 0.532864 3.370703 -15.730709 6.644288 28.927961 -5.079135 -5.364993 -21.706289 1.957948 -7.346674 -0.096759 -2.695282 -1.131452 24.742479 -1.875036 1.554028 1.206988 -23.109655 8.917015 -25.064230 -2.625801 -5.041808 1.896474 4.255284 -3.763429 3.041664 -0.595502 -1.356715 8.457414 -7.655114 -1.970053 -0.055028 -2.305390 -4.407594 1.922001 1.671155 -3.584634 0.875781 0.352002 0.331918 -1.940166 0.289407 0.564360 -0.937406 0.170931 0.446750 2.389128 -1.607329 -0.751209 0.303050 13.569004 -16.081455 24.761696 2.753778 -10.407934 -0.909102 0.049282 -0.531117 -17.990356 3.028913 -1.373033 1.504246 -1.185290 0.000000 0.000000 8.597650 -5.687757 24.374449 0.194621 -0.427698 -0.007714 0.188115 -11.151459 -9.921451 -1.283252 6.473969 -2.861573 0.121345 0.084922 2.178210 -15.498878 -7.353076 -16.665462 -1.175048 0.000000 0.000000 -23.965984 -52.558624 -1.963287
